Coordinates
version=1
nRows=16
nColumns=32
inDegrees=yes

Units are S.I. units (second, meters, Newtons, ...)
If the header above contains a line with 'inDegrees', this indicates whether rotational values are in degrees (yes) or radians (no).

endheader
time	pelvis_tilt	pelvis_list	pelvis_rotation	pelvis_tx	pelvis_ty	pelvis_tz	hip_flexion_r	hip_adduction_r	hip_rotation_r	knee_angle_r	knee_adduction_r	med_cond_adduction_r	lat_cond_adduction_r	patella_r_constrained_knee_angle	ankle_angle_r	subtalar_angle_r	mtp_angle_r	hip_flexion_l	hip_adduction_l	hip_rotation_l	knee_angle_l	knee_adduction_l	med_cond_adduction_l	lat_cond_adduction_l	patella_l_constrained_knee_angle	ankle_angle_l	subtalar_angle_l	mtp_angle_l	lumbar_extension	lumbar_bending	lumbar_rotation
      0.66500000	    -20.11081860	     -0.70312092	     -3.66084818	      0.16029688	      0.72057834	     -1.18927766	     63.70187888	    -34.09409006	     -8.12144505	    -69.88410786	      4.78334951	      0.00000000	      0.00000000	     -1.21970778	     15.40878169	     13.92871161	      0.00000000	     64.06837037	    -42.14693424	    -12.09242291	    -71.38132422	      3.83049830	      0.00000000	     -0.00000000	     -1.24583913	     15.17381086	     19.06630781	     -0.00000000	     -3.70095492	      1.53977171	      0.88180984
      0.67000000	    -20.18555185	     -0.71781245	     -3.77760502	      0.15982233	      0.71758573	     -1.18896445	     64.32396123	    -34.04774635	     -8.05755611	    -70.54354430	      4.47066854	     -0.00000000	     -0.00000000	     -1.23121711	     15.58776825	     14.11815851	      0.00000000	     64.64640502	    -42.47711076	    -11.73723932	    -72.00945987	      3.92375211	     -0.00000000	     -0.00000000	     -1.25680217	     15.25779210	     19.11372713	     -0.00000000	     -3.69098077	      1.59351041	      1.10380709
      0.67500000	    -20.11059929	     -0.62195080	     -3.75132262	      0.15948289	      0.71495589	     -1.18896085	     64.78506988	    -34.27651816	     -7.89897663	    -71.18567959	      4.29611805	     -0.00000000	     -0.00000000	     -1.24242449	     15.83462440	     14.39911256	     -0.00000000	     64.97074254	    -42.56886045	    -11.65682860	    -72.58576060	      3.84604948	      0.00000000	      0.00000000	     -1.26686051	     15.42905472	     19.15057307	     -0.00000000	     -3.87288795	      1.47879126	      1.13395304
      0.68000000	    -20.08122055	     -0.63862092	     -3.73004222	      0.15913515	      0.71224517	     -1.18905623	     65.19121418	    -34.41309637	     -7.84182384	    -71.78617987	      4.10932275	      0.00000000	      0.00000000	     -1.25290520	     16.07266274	     14.60961331	      0.00000000	     65.45665946	    -42.71556431	    -11.31492042	    -73.18208915	      3.84398707	     -0.00000000	     -0.00000000	     -1.27726841	     15.62673273	     19.18116299	     -0.00000000	     -4.00426389	      1.47209319	      1.06212179
      0.68500000	    -20.09361395	     -0.64227346	     -3.76772768	      0.15873762	      0.70943040	     -1.18900253	     65.69061070	    -34.48117246	     -7.74762171	    -72.39920650	      3.89892593	     -0.00000000	     -0.00000000	     -1.26360453	     16.30816234	     14.78142919	     -0.00000000	     65.96075175	    -42.92187324	    -11.01868707	    -73.77700735	      3.84672327	     -0.00000000	     -0.00000000	     -1.28765169	     15.84178259	     19.21222014	     -0.00000000	     -4.08262546	      1.49416191	      1.14002288
      0.69000000	    -19.91143602	     -0.50452068	     -3.57450037	      0.15855233	      0.70718073	     -1.18945530	     65.94431839	    -34.93823032	     -7.58025593	    -72.95337287	      3.81474884	      0.00000000	      0.00000000	     -1.27327656	     16.63442981	     15.13761900	      0.00000000	     66.13566145	    -42.75276238	    -11.01341008	    -74.29389771	      3.64939219	      0.00000000	      0.00000000	     -1.29667313	     16.13979195	     19.22698659	      0.00000000	     -4.42083011	      1.32708969	      0.92154595
      0.69500000	    -20.01926850	     -0.65804239	     -3.75998525	      0.15803400	      0.70414641	     -1.18915542	     66.49117591	    -34.70633560	     -7.59248797	    -73.54206279	      3.52569377	      0.00000000	      0.00000000	     -1.28355113	     16.74463880	     15.16460553	      0.00000000	     66.86955681	    -43.20722209	    -10.46133525	    -74.93095834	      3.75684231	     -0.00000000	     -0.00000000	     -1.30779193	     16.24555752	     19.26922413	     -0.00000000	     -4.39794965	      1.50246767	      1.08900415
      0.70000000	    -19.69625877	     -0.52484295	     -3.50053872	      0.15798037	      0.70227754	     -1.18979944	     66.53861451	    -35.27414588	     -7.44405267	    -74.06106717	      3.54305431	      0.00000000	      0.00000000	     -1.29260947	     16.98914659	     15.27670433	     -0.00000000	     66.86116490	    -42.96032033	    -10.48993710	    -75.41624217	      3.53720984	     -0.00000000	     -0.00000000	     -1.31626174	     16.65217312	     19.30143170	     -0.00000000	     -4.93650628	      1.33277953	      0.77494572
      0.70500000	    -19.98319962	     -0.76372466	     -3.66981836	      0.15735645	      0.69875931	     -1.18954806	     67.24161018	    -35.01289600	     -7.66660224	    -74.69841973	      3.12805659	      0.00000000	      0.00000000	     -1.30373337	     17.17398774	     15.50373801	     -0.00000000	     67.97080517	    -43.44282332	     -9.70883386	    -76.08806414	      3.66987025	     -0.00000000	     -0.00000000	     -1.32798724	     16.57117068	     19.31215491	      0.00000000	     -4.65877348	      1.56306934	      0.80038477
      0.71000000	    -19.88356463	     -0.74093491	     -3.63364510	      0.15717934	      0.69639937	     -1.18969761	     67.54772276	    -35.18823449	     -7.65207055	    -75.22696622	      2.88157851	      0.00000000	      0.00000000	     -1.31295825	     17.40387938	     15.72480132	      0.00000000	     68.29706248	    -43.53180303	     -9.60346560	    -76.62353461	      3.52002716	     -0.00000000	     -0.00000000	     -1.33733296	     16.73635229	     19.33477160	     -0.00000000	     -4.90348351	      1.52461272	      0.71129813
      0.71500000	    -19.87874028	     -0.79746720	     -3.67417019	      0.15679936	      0.69378408	     -1.18973068	     67.93536303	    -35.21577574	     -7.59456786	    -75.74579507	      2.72605914	     -0.00000000	     -0.00000000	     -1.32201352	     17.57562739	     15.80264755	      0.00000000	     68.82009930	    -43.71845574	     -9.31210658	    -77.17150010	      3.41551313	     -0.00000000	     -0.00000000	     -1.34689677	     16.94632494	     19.35916901	      0.00000000	     -5.04789824	      1.75457955	      0.97222595
      0.72000000	    -19.68946880	     -0.65828885	     -3.66109123	      0.15666142	      0.69174513	     -1.18986827	     68.23245877	    -35.44427886	     -7.45010739	    -76.24133853	      2.47311602	      0.00000000	      0.00000000	     -1.33066238	     17.76138607	     16.07264079	     -0.00000000	     68.88227982	    -43.77351217	     -9.55290306	    -77.66800219	      3.15691800	      0.00000000	      0.00000000	     -1.35556236	     17.07061998	     19.38209955	     -0.00000000	     -5.41925198	      1.46231935	      0.70523421
      0.72500000	    -19.09405346	     -0.48358596	     -3.42016387	      0.15674951	      0.69089647	     -1.19048591	     67.90975604	    -35.99401454	     -7.12780632	    -76.60394277	      2.67346739	      0.00000000	      0.00000000	     -1.33699102	     18.08855756	     15.83671308	      0.00000000	     68.29383636	    -43.44925309	     -9.75932143	    -77.94267244	      2.94410504	      0.00000000	      0.00000000	     -1.36035626	     17.85902226	     19.41867203	     -0.00000000	     -6.38809174	      1.22459613	      0.44434448
      0.73000000	    -19.63566662	     -0.77299517	     -3.68272622	      0.15603280	      0.68674069	     -1.19010892	     68.91500238	    -35.57958749	     -7.47146342	    -77.25429119	      2.07034294	      0.00000000	      0.00000000	     -1.34834174	     18.13487692	     16.30829748	     -0.00000000	     69.85590601	    -44.06753797	     -8.96535537	    -78.72799843	      2.95618659	     -0.00000000	     -0.00000000	     -1.37406279	     17.48492402	     19.41308061	     -0.00000000	     -5.75195130	      1.55587608	      0.57706715
      0.73500000	    -19.44699572	     -0.70897224	     -3.50946796	      0.15589047	      0.68473796	     -1.19053254	     69.11107319	    -35.98586532	     -7.57943552	    -77.78623970	      1.80204440	     -0.00000000	     -0.00000000	     -1.35762600	     18.36109829	     16.72877829	     -0.00000000	     70.05968480	    -43.95840983	     -9.03968995	    -79.17702659	      2.63657208	      0.00000000	      0.00000000	     -1.38189981	     17.52373644	     19.42486365	      0.00000000	     -6.13486731	      1.46131856	      0.35013155
      0.74000000	    -19.47242337	     -0.76213801	     -3.56728563	      0.15549856	      0.68217858	     -1.19058872	     69.51905389	    -35.97127068	     -7.50349083	    -78.24950383	      1.62168701	      0.00000000	      0.00000000	     -1.36571148	     18.47122080	     16.67200481	      0.00000000	     70.59626242	    -44.12814903	     -8.69132876	    -79.69834059	      2.58332568	     -0.00000000	     -0.00000000	     -1.39099845	     17.76346460	     19.43861336	     -0.00000000	     -6.25438496	      1.57935452	      0.41952307
